<svg xmlns="http://www.w3.org/2000/svg" width="560" height="112" viewBox="0 0 560 112" role="img" aria-label="Jobcraft">
  <g transform="translate(8 8) scale(0.1875)">
    <rect width="512" height="512" rx="112" fill="#0B1220"/>
    <path
      fill="#F8FAFC"
      d="
        M 196 128
        H 340
        C 354 128 364 138 364 152
        V 176
        C 364 190 354 200 340 200
        H 300
        V 328
        C 300 384 262 424 204 424
        C 172 424 148 410 134 386
        C 126 374 130 358 142 350
        C 154 342 170 346 178 358
        C 184 368 192 376 204 376
        C 234 376 252 354 252 328
        V 200
        H 196
        C 182 200 172 190 172 176
        V 152
        C 172 138 182 128 196 128
        Z
      "
    />
    <rect
      x="122"
      y="350"
      width="32"
      height="32"
      rx="5"
      fill="#E8A317"
      transform="rotate(45 138 366)"
    />
  </g>
  <text
    x="124"
    y="68"
    font-family="ui-sans-serif, system-ui, -apple-system, BlinkMacSystemFont, 'Segoe UI', Helvetica, Arial, sans-serif"
    font-size="48"
    font-weight="600"
    letter-spacing="-2"
  ><tspan fill="#0F172A">Job</tspan><tspan fill="#C8871E">craft</tspan></text>
</svg>
